<mxfile host="app.diagrams.net" modified="2022-07-14T21:18:36.756Z" agent="5.0 (Windows NT 10.0; Win64; x64) AppleWebKit/537.36 (KHTML, like Gecko) Chrome/103.0.0.0 Safari/537.36" etag="OvgAQeeOng7cvqgPjQLR" version="20.1.1" type="github">
  <diagram id="Plf4LPq0GLGCBRdL_4Ds" name="Page-1">
    <mxGraphModel dx="1038" dy="571" grid="1" gridSize="10" guides="1" tooltips="1" connect="1" arrows="1" fold="1" page="1" pageScale="1" pageWidth="850" pageHeight="1100" math="0" shadow="0">
      <root>
        <mxCell id="0" />
        <mxCell id="1" parent="0" />
        <mxCell id="oyLcNb62KB4HVOdK1oz7-9" style="rounded=0;orthogonalLoop=1;jettySize=auto;html=1;entryX=0.5;entryY=1;entryDx=0;entryDy=0;fontSize=21;strokeWidth=2;endArrow=none;endFill=0;" parent="1" source="oyLcNb62KB4HVOdK1oz7-3" target="oyLcNb62KB4HVOdK1oz7-5" edge="1">
          <mxGeometry relative="1" as="geometry" />
        </mxCell>
        <mxCell id="oyLcNb62KB4HVOdK1oz7-10" style="rounded=0;orthogonalLoop=1;jettySize=auto;html=1;entryX=0.5;entryY=1;entryDx=0;entryDy=0;fontSize=21;strokeWidth=2;endArrow=none;endFill=0;" parent="1" source="oyLcNb62KB4HVOdK1oz7-3" target="oyLcNb62KB4HVOdK1oz7-6" edge="1">
          <mxGeometry relative="1" as="geometry" />
        </mxCell>
        <mxCell id="oyLcNb62KB4HVOdK1oz7-13" style="rounded=0;orthogonalLoop=1;jettySize=auto;html=1;fontSize=21;strokeWidth=2;endArrow=none;endFill=0;" parent="1" source="oyLcNb62KB4HVOdK1oz7-3" target="oyLcNb62KB4HVOdK1oz7-4" edge="1">
          <mxGeometry relative="1" as="geometry" />
        </mxCell>
        <mxCell id="oyLcNb62KB4HVOdK1oz7-14" style="rounded=0;orthogonalLoop=1;jettySize=auto;html=1;entryX=0.5;entryY=1;entryDx=0;entryDy=0;fontSize=21;strokeWidth=2;endArrow=none;endFill=0;" parent="1" source="oyLcNb62KB4HVOdK1oz7-3" target="oyLcNb62KB4HVOdK1oz7-12" edge="1">
          <mxGeometry relative="1" as="geometry" />
        </mxCell>
        <mxCell id="oyLcNb62KB4HVOdK1oz7-39" style="edgeStyle=none;rounded=0;orthogonalLoop=1;jettySize=auto;html=1;entryX=0.5;entryY=0;entryDx=0;entryDy=0;fontSize=21;endArrow=none;endFill=0;strokeWidth=2;shape=link;startArrow=none;" parent="1" source="oyLcNb62KB4HVOdK1oz7-81" target="oyLcNb62KB4HVOdK1oz7-38" edge="1">
          <mxGeometry relative="1" as="geometry" />
        </mxCell>
        <mxCell id="oyLcNb62KB4HVOdK1oz7-66" style="edgeStyle=none;rounded=0;orthogonalLoop=1;jettySize=auto;html=1;entryX=0.5;entryY=0;entryDx=0;entryDy=0;fontSize=21;endArrow=none;endFill=0;strokeWidth=2;shape=link;startArrow=none;" parent="1" source="oyLcNb62KB4HVOdK1oz7-74" target="oyLcNb62KB4HVOdK1oz7-65" edge="1">
          <mxGeometry relative="1" as="geometry" />
        </mxCell>
        <mxCell id="oyLcNb62KB4HVOdK1oz7-3" value="Student" style="rounded=0;whiteSpace=wrap;html=1;strokeWidth=2;fontSize=21;fillColor=#d5e8d4;strokeColor=#82b366;" parent="1" vertex="1">
          <mxGeometry x="287.5" y="280" width="120" height="60" as="geometry" />
        </mxCell>
        <mxCell id="oyLcNb62KB4HVOdK1oz7-4" value="St_id" style="ellipse;whiteSpace=wrap;html=1;strokeWidth=2;fontSize=21;fillStyle=auto;fontStyle=4;fillColor=#dae8fc;strokeColor=#6c8ebf;" parent="1" vertex="1">
          <mxGeometry x="47.5" y="130" width="120" height="80" as="geometry" />
        </mxCell>
        <mxCell id="oyLcNb62KB4HVOdK1oz7-5" value="St_age" style="ellipse;whiteSpace=wrap;html=1;fontSize=21;strokeWidth=2;fillColor=#dae8fc;strokeColor=#6c8ebf;" parent="1" vertex="1">
          <mxGeometry x="187.5" y="120" width="120" height="80" as="geometry" />
        </mxCell>
        <mxCell id="oyLcNb62KB4HVOdK1oz7-6" value="St_address" style="ellipse;whiteSpace=wrap;html=1;fontSize=21;strokeWidth=2;fillColor=#dae8fc;strokeColor=#6c8ebf;" parent="1" vertex="1">
          <mxGeometry x="317.5" y="120" width="120" height="80" as="geometry" />
        </mxCell>
        <mxCell id="oyLcNb62KB4HVOdK1oz7-20" style="edgeStyle=none;rounded=0;orthogonalLoop=1;jettySize=auto;html=1;entryX=0.5;entryY=1;entryDx=0;entryDy=0;fontSize=21;endArrow=none;endFill=0;strokeWidth=2;" parent="1" source="oyLcNb62KB4HVOdK1oz7-12" target="oyLcNb62KB4HVOdK1oz7-18" edge="1">
          <mxGeometry relative="1" as="geometry">
            <mxPoint x="502.5" y="99.99999999999989" as="targetPoint" />
          </mxGeometry>
        </mxCell>
        <mxCell id="oyLcNb62KB4HVOdK1oz7-21" style="edgeStyle=none;rounded=0;orthogonalLoop=1;jettySize=auto;html=1;entryX=0.5;entryY=1;entryDx=0;entryDy=0;fontSize=21;endArrow=none;endFill=0;strokeWidth=2;" parent="1" source="oyLcNb62KB4HVOdK1oz7-12" target="oyLcNb62KB4HVOdK1oz7-19" edge="1">
          <mxGeometry relative="1" as="geometry">
            <mxPoint x="642.5" y="99.99999999999989" as="targetPoint" />
          </mxGeometry>
        </mxCell>
        <mxCell id="oyLcNb62KB4HVOdK1oz7-12" value="studentName" style="ellipse;whiteSpace=wrap;html=1;fontSize=21;strokeWidth=2;fillColor=#dae8fc;strokeColor=#6c8ebf;" parent="1" vertex="1">
          <mxGeometry x="450" y="130" width="140" height="80" as="geometry" />
        </mxCell>
        <mxCell id="oyLcNb62KB4HVOdK1oz7-18" value="Fname" style="ellipse;whiteSpace=wrap;html=1;fontSize=21;strokeWidth=2;fillColor=#e1d5e7;strokeColor=#9673a6;" parent="1" vertex="1">
          <mxGeometry x="437.5" y="20" width="120" height="80" as="geometry" />
        </mxCell>
        <mxCell id="oyLcNb62KB4HVOdK1oz7-19" value="Lname" style="ellipse;whiteSpace=wrap;html=1;fontSize=21;strokeWidth=2;fillColor=#e1d5e7;strokeColor=#9673a6;" parent="1" vertex="1">
          <mxGeometry x="572.5" y="20" width="120" height="80" as="geometry" />
        </mxCell>
        <mxCell id="oyLcNb62KB4HVOdK1oz7-77" style="edgeStyle=none;rounded=0;orthogonalLoop=1;jettySize=auto;html=1;entryX=0.5;entryY=1;entryDx=0;entryDy=0;fontSize=21;endArrow=none;endFill=0;strokeWidth=2;startArrow=none;" parent="1" source="oyLcNb62KB4HVOdK1oz7-82" target="oyLcNb62KB4HVOdK1oz7-76" edge="1">
          <mxGeometry relative="1" as="geometry" />
        </mxCell>
        <mxCell id="oyLcNb62KB4HVOdK1oz7-22" value="Department" style="rounded=0;whiteSpace=wrap;html=1;strokeWidth=2;fontSize=21;fillColor=#d5e8d4;strokeColor=#82b366;" parent="1" vertex="1">
          <mxGeometry x="1250" y="710" width="120" height="60" as="geometry" />
        </mxCell>
        <mxCell id="oyLcNb62KB4HVOdK1oz7-25" style="edgeStyle=none;rounded=0;orthogonalLoop=1;jettySize=auto;html=1;entryX=0.5;entryY=1;entryDx=0;entryDy=0;fontSize=21;endArrow=none;endFill=0;strokeWidth=2;" parent="1" source="oyLcNb62KB4HVOdK1oz7-23" target="oyLcNb62KB4HVOdK1oz7-22" edge="1">
          <mxGeometry relative="1" as="geometry" />
        </mxCell>
        <mxCell id="oyLcNb62KB4HVOdK1oz7-23" value="dept_id" style="ellipse;whiteSpace=wrap;html=1;fontSize=21;strokeWidth=2;fontStyle=4;fillColor=#dae8fc;strokeColor=#6c8ebf;" parent="1" vertex="1">
          <mxGeometry x="1320" y="820" width="140" height="80" as="geometry" />
        </mxCell>
        <mxCell id="oyLcNb62KB4HVOdK1oz7-26" style="edgeStyle=none;rounded=0;orthogonalLoop=1;jettySize=auto;html=1;entryX=0.5;entryY=1;entryDx=0;entryDy=0;fontSize=21;endArrow=none;endFill=0;strokeWidth=2;" parent="1" source="oyLcNb62KB4HVOdK1oz7-24" target="oyLcNb62KB4HVOdK1oz7-22" edge="1">
          <mxGeometry relative="1" as="geometry" />
        </mxCell>
        <mxCell id="oyLcNb62KB4HVOdK1oz7-24" value="dep_name" style="ellipse;whiteSpace=wrap;html=1;fontSize=21;strokeWidth=2;fontStyle=0;fillColor=#dae8fc;strokeColor=#6c8ebf;" parent="1" vertex="1">
          <mxGeometry x="1170" y="820" width="140" height="80" as="geometry" />
        </mxCell>
        <mxCell id="oyLcNb62KB4HVOdK1oz7-27" value="Course" style="rounded=0;whiteSpace=wrap;html=1;strokeWidth=2;fontSize=21;fillColor=#d5e8d4;strokeColor=#82b366;" parent="1" vertex="1">
          <mxGeometry x="197.5" y="810" width="120" height="60" as="geometry" />
        </mxCell>
        <mxCell id="oyLcNb62KB4HVOdK1oz7-31" style="edgeStyle=none;rounded=0;orthogonalLoop=1;jettySize=auto;html=1;entryX=0;entryY=0.5;entryDx=0;entryDy=0;fontSize=21;endArrow=none;endFill=0;strokeWidth=2;" parent="1" source="oyLcNb62KB4HVOdK1oz7-28" target="oyLcNb62KB4HVOdK1oz7-27" edge="1">
          <mxGeometry relative="1" as="geometry" />
        </mxCell>
        <mxCell id="oyLcNb62KB4HVOdK1oz7-28" value="crs_id" style="ellipse;whiteSpace=wrap;html=1;fontSize=21;strokeWidth=2;fontStyle=4;fillColor=#dae8fc;strokeColor=#6c8ebf;" parent="1" vertex="1">
          <mxGeometry x="20" y="870" width="140" height="80" as="geometry" />
        </mxCell>
        <mxCell id="oyLcNb62KB4HVOdK1oz7-33" style="edgeStyle=none;rounded=0;orthogonalLoop=1;jettySize=auto;html=1;entryX=0;entryY=0.5;entryDx=0;entryDy=0;fontSize=21;endArrow=none;endFill=0;strokeWidth=2;" parent="1" source="oyLcNb62KB4HVOdK1oz7-29" target="oyLcNb62KB4HVOdK1oz7-27" edge="1">
          <mxGeometry relative="1" as="geometry" />
        </mxCell>
        <mxCell id="oyLcNb62KB4HVOdK1oz7-29" value="crs_name" style="ellipse;whiteSpace=wrap;html=1;fontSize=21;strokeWidth=2;fontStyle=0;fillColor=#dae8fc;strokeColor=#6c8ebf;" parent="1" vertex="1">
          <mxGeometry x="20" y="740" width="140" height="80" as="geometry" />
        </mxCell>
        <mxCell id="oyLcNb62KB4HVOdK1oz7-34" style="edgeStyle=none;rounded=0;orthogonalLoop=1;jettySize=auto;html=1;entryX=0.5;entryY=1;entryDx=0;entryDy=0;fontSize=21;endArrow=none;endFill=0;strokeWidth=2;" parent="1" source="oyLcNb62KB4HVOdK1oz7-30" target="oyLcNb62KB4HVOdK1oz7-27" edge="1">
          <mxGeometry relative="1" as="geometry" />
        </mxCell>
        <mxCell id="oyLcNb62KB4HVOdK1oz7-30" value="crs_name" style="ellipse;whiteSpace=wrap;html=1;fontSize=21;strokeWidth=2;fontStyle=0;fillColor=#dae8fc;strokeColor=#6c8ebf;" parent="1" vertex="1">
          <mxGeometry x="110" y="950" width="140" height="80" as="geometry" />
        </mxCell>
        <mxCell id="oyLcNb62KB4HVOdK1oz7-36" style="edgeStyle=none;rounded=0;orthogonalLoop=1;jettySize=auto;html=1;entryX=0.75;entryY=1;entryDx=0;entryDy=0;fontSize=21;endArrow=none;endFill=0;strokeWidth=2;" parent="1" source="oyLcNb62KB4HVOdK1oz7-35" target="oyLcNb62KB4HVOdK1oz7-27" edge="1">
          <mxGeometry relative="1" as="geometry" />
        </mxCell>
        <mxCell id="oyLcNb62KB4HVOdK1oz7-35" value="crs_Description" style="ellipse;whiteSpace=wrap;html=1;fontSize=21;strokeWidth=2;fontStyle=0;fillColor=#dae8fc;strokeColor=#6c8ebf;" parent="1" vertex="1">
          <mxGeometry x="270" y="945" width="155" height="90" as="geometry" />
        </mxCell>
        <mxCell id="oyLcNb62KB4HVOdK1oz7-40" style="edgeStyle=none;rounded=0;orthogonalLoop=1;jettySize=auto;html=1;entryX=0.5;entryY=0;entryDx=0;entryDy=0;fontSize=21;endArrow=none;endFill=0;strokeWidth=2;shape=link;startArrow=none;" parent="1" source="oyLcNb62KB4HVOdK1oz7-80" target="oyLcNb62KB4HVOdK1oz7-27" edge="1">
          <mxGeometry relative="1" as="geometry" />
        </mxCell>
        <mxCell id="oyLcNb62KB4HVOdK1oz7-43" style="edgeStyle=none;rounded=0;orthogonalLoop=1;jettySize=auto;html=1;entryX=0.5;entryY=1;entryDx=0;entryDy=0;fontSize=21;endArrow=none;endFill=0;strokeWidth=2;" parent="1" source="oyLcNb62KB4HVOdK1oz7-38" target="oyLcNb62KB4HVOdK1oz7-42" edge="1">
          <mxGeometry relative="1" as="geometry" />
        </mxCell>
        <mxCell id="oyLcNb62KB4HVOdK1oz7-38" value="has" style="ellipse;whiteSpace=wrap;html=1;fontSize=21;strokeWidth=2;fontStyle=0;fillColor=#f8cecc;strokeColor=#b85450;" parent="1" vertex="1">
          <mxGeometry x="150" y="510" width="140" height="80" as="geometry" />
        </mxCell>
        <mxCell id="oyLcNb62KB4HVOdK1oz7-42" value="grade" style="ellipse;whiteSpace=wrap;html=1;fontSize=21;strokeWidth=2;fontStyle=0;fillColor=#ffe6cc;strokeColor=#d79b00;" parent="1" vertex="1">
          <mxGeometry x="37.5" y="380" width="140" height="80" as="geometry" />
        </mxCell>
        <mxCell id="oyLcNb62KB4HVOdK1oz7-48" style="edgeStyle=none;rounded=0;orthogonalLoop=1;jettySize=auto;html=1;entryX=0.5;entryY=1;entryDx=0;entryDy=0;fontSize=21;endArrow=none;endFill=0;strokeWidth=2;" parent="1" source="oyLcNb62KB4HVOdK1oz7-44" target="oyLcNb62KB4HVOdK1oz7-46" edge="1">
          <mxGeometry relative="1" as="geometry" />
        </mxCell>
        <mxCell id="oyLcNb62KB4HVOdK1oz7-49" style="edgeStyle=none;rounded=0;orthogonalLoop=1;jettySize=auto;html=1;entryX=0.5;entryY=1;entryDx=0;entryDy=0;fontSize=21;endArrow=none;endFill=0;strokeWidth=2;" parent="1" source="oyLcNb62KB4HVOdK1oz7-44" target="oyLcNb62KB4HVOdK1oz7-45" edge="1">
          <mxGeometry relative="1" as="geometry" />
        </mxCell>
        <mxCell id="oyLcNb62KB4HVOdK1oz7-50" style="edgeStyle=none;rounded=0;orthogonalLoop=1;jettySize=auto;html=1;entryX=0.5;entryY=1;entryDx=0;entryDy=0;fontSize=21;endArrow=none;endFill=0;strokeWidth=2;" parent="1" source="oyLcNb62KB4HVOdK1oz7-44" target="oyLcNb62KB4HVOdK1oz7-47" edge="1">
          <mxGeometry relative="1" as="geometry" />
        </mxCell>
        <mxCell id="oyLcNb62KB4HVOdK1oz7-54" style="edgeStyle=none;rounded=0;orthogonalLoop=1;jettySize=auto;html=1;entryX=0.6;entryY=1.042;entryDx=0;entryDy=0;entryPerimeter=0;fontSize=21;endArrow=none;endFill=0;strokeWidth=2;" parent="1" source="oyLcNb62KB4HVOdK1oz7-44" target="oyLcNb62KB4HVOdK1oz7-52" edge="1">
          <mxGeometry relative="1" as="geometry" />
        </mxCell>
        <mxCell id="oyLcNb62KB4HVOdK1oz7-57" style="edgeStyle=none;rounded=0;orthogonalLoop=1;jettySize=auto;html=1;entryX=0.01;entryY=0.719;entryDx=0;entryDy=0;fontSize=21;endArrow=none;endFill=0;strokeWidth=2;entryPerimeter=0;" parent="1" source="oyLcNb62KB4HVOdK1oz7-44" target="oyLcNb62KB4HVOdK1oz7-53" edge="1">
          <mxGeometry relative="1" as="geometry" />
        </mxCell>
        <mxCell id="oyLcNb62KB4HVOdK1oz7-44" value="instructor" style="rounded=0;whiteSpace=wrap;html=1;strokeWidth=2;fontSize=21;fillColor=#d5e8d4;strokeColor=#82b366;" parent="1" vertex="1">
          <mxGeometry x="1190" y="310" width="120" height="60" as="geometry" />
        </mxCell>
        <mxCell id="oyLcNb62KB4HVOdK1oz7-45" value="ins_name" style="ellipse;whiteSpace=wrap;html=1;fontSize=21;strokeWidth=2;fillColor=#dae8fc;strokeColor=#6c8ebf;" parent="1" vertex="1">
          <mxGeometry x="1170" y="100" width="120" height="80" as="geometry" />
        </mxCell>
        <mxCell id="oyLcNb62KB4HVOdK1oz7-46" value="ins_id" style="ellipse;whiteSpace=wrap;html=1;strokeWidth=2;fontSize=21;fillStyle=auto;fontStyle=4" parent="1" vertex="1">
          <mxGeometry x="1040" y="120" width="120" height="80" as="geometry" />
        </mxCell>
        <mxCell id="oyLcNb62KB4HVOdK1oz7-47" value="ins_salary" style="ellipse;whiteSpace=wrap;html=1;fontSize=21;strokeWidth=2;" parent="1" vertex="1">
          <mxGeometry x="1300" y="100" width="120" height="80" as="geometry" />
        </mxCell>
        <mxCell id="oyLcNb62KB4HVOdK1oz7-58" style="edgeStyle=none;rounded=0;orthogonalLoop=1;jettySize=auto;html=1;exitX=0;exitY=1;exitDx=0;exitDy=0;entryX=0.75;entryY=0;entryDx=0;entryDy=0;fontSize=21;endArrow=none;endFill=0;strokeWidth=2;" parent="1" source="oyLcNb62KB4HVOdK1oz7-51" target="oyLcNb62KB4HVOdK1oz7-44" edge="1">
          <mxGeometry relative="1" as="geometry" />
        </mxCell>
        <mxCell id="oyLcNb62KB4HVOdK1oz7-51" value="ins_hourRate" style="ellipse;whiteSpace=wrap;html=1;fontSize=21;strokeWidth=2;fillColor=#dae8fc;strokeColor=#6c8ebf;" parent="1" vertex="1">
          <mxGeometry x="1430" y="100" width="140" height="90" as="geometry" />
        </mxCell>
        <mxCell id="oyLcNb62KB4HVOdK1oz7-52" value="ins_bouns" style="ellipse;whiteSpace=wrap;html=1;fontSize=21;strokeWidth=2;" parent="1" vertex="1">
          <mxGeometry x="910" y="150" width="120" height="80" as="geometry" />
        </mxCell>
        <mxCell id="oyLcNb62KB4HVOdK1oz7-53" value="ins_address" style="ellipse;whiteSpace=wrap;html=1;fontSize=21;strokeWidth=2;" parent="1" vertex="1">
          <mxGeometry x="1520" y="180" width="140" height="90" as="geometry" />
        </mxCell>
        <mxCell id="oyLcNb62KB4HVOdK1oz7-59" value="Topic" style="rounded=0;whiteSpace=wrap;html=1;strokeWidth=2;fontSize=21;fillColor=#d5e8d4;strokeColor=#82b366;" parent="1" vertex="1">
          <mxGeometry x="935" y="880" width="120" height="60" as="geometry" />
        </mxCell>
        <mxCell id="oyLcNb62KB4HVOdK1oz7-63" style="edgeStyle=none;rounded=0;orthogonalLoop=1;jettySize=auto;html=1;entryX=0.5;entryY=1;entryDx=0;entryDy=0;fontSize=21;endArrow=none;endFill=0;strokeWidth=2;" parent="1" source="oyLcNb62KB4HVOdK1oz7-60" target="oyLcNb62KB4HVOdK1oz7-59" edge="1">
          <mxGeometry relative="1" as="geometry" />
        </mxCell>
        <mxCell id="oyLcNb62KB4HVOdK1oz7-60" value="crs_name" style="ellipse;whiteSpace=wrap;html=1;fontSize=21;strokeWidth=2;fontStyle=0;fillColor=#dae8fc;strokeColor=#6c8ebf;" parent="1" vertex="1">
          <mxGeometry x="840" y="1000" width="140" height="80" as="geometry" />
        </mxCell>
        <mxCell id="oyLcNb62KB4HVOdK1oz7-62" style="edgeStyle=none;rounded=0;orthogonalLoop=1;jettySize=auto;html=1;entryX=0.5;entryY=1;entryDx=0;entryDy=0;fontSize=21;endArrow=none;endFill=0;strokeWidth=2;" parent="1" source="oyLcNb62KB4HVOdK1oz7-61" target="oyLcNb62KB4HVOdK1oz7-59" edge="1">
          <mxGeometry relative="1" as="geometry" />
        </mxCell>
        <mxCell id="oyLcNb62KB4HVOdK1oz7-61" value="crs_id" style="ellipse;whiteSpace=wrap;html=1;fontSize=21;strokeWidth=2;fontStyle=4;fillColor=#dae8fc;strokeColor=#6c8ebf;" parent="1" vertex="1">
          <mxGeometry x="1015" y="1000" width="140" height="80" as="geometry" />
        </mxCell>
        <mxCell id="oyLcNb62KB4HVOdK1oz7-67" style="edgeStyle=none;rounded=0;orthogonalLoop=1;jettySize=auto;html=1;fontSize=21;endArrow=none;endFill=0;strokeWidth=2;startArrow=none;entryX=0.75;entryY=0;entryDx=0;entryDy=0;" parent="1" source="oyLcNb62KB4HVOdK1oz7-75" target="oyLcNb62KB4HVOdK1oz7-27" edge="1">
          <mxGeometry relative="1" as="geometry">
            <mxPoint x="288" y="800" as="targetPoint" />
          </mxGeometry>
        </mxCell>
        <mxCell id="oyLcNb62KB4HVOdK1oz7-65" value="take" style="ellipse;whiteSpace=wrap;html=1;fontSize=21;strokeWidth=2;fontStyle=0;fillColor=#f8cecc;strokeColor=#b85450;" parent="1" vertex="1">
          <mxGeometry x="325" y="510" width="140" height="80" as="geometry" />
        </mxCell>
        <mxCell id="oyLcNb62KB4HVOdK1oz7-68" value="ins_address" style="ellipse;whiteSpace=wrap;html=1;fontSize=21;strokeWidth=2;" parent="1" vertex="1">
          <mxGeometry x="1520" y="180" width="140" height="90" as="geometry" />
        </mxCell>
        <mxCell id="oyLcNb62KB4HVOdK1oz7-69" value="ins_salary" style="ellipse;whiteSpace=wrap;html=1;fontSize=21;strokeWidth=2;" parent="1" vertex="1">
          <mxGeometry x="1300" y="100" width="120" height="80" as="geometry" />
        </mxCell>
        <mxCell id="oyLcNb62KB4HVOdK1oz7-70" value="ins_address" style="ellipse;whiteSpace=wrap;html=1;fontSize=21;strokeWidth=2;fillColor=#dae8fc;strokeColor=#6c8ebf;" parent="1" vertex="1">
          <mxGeometry x="1520" y="180" width="140" height="90" as="geometry" />
        </mxCell>
        <mxCell id="oyLcNb62KB4HVOdK1oz7-71" value="ins_salary" style="ellipse;whiteSpace=wrap;html=1;fontSize=21;strokeWidth=2;fillColor=#dae8fc;strokeColor=#6c8ebf;" parent="1" vertex="1">
          <mxGeometry x="1300" y="100" width="120" height="80" as="geometry" />
        </mxCell>
        <mxCell id="oyLcNb62KB4HVOdK1oz7-72" value="ins_id" style="ellipse;whiteSpace=wrap;html=1;strokeWidth=2;fontSize=21;fillStyle=auto;fontStyle=4;fillColor=#dae8fc;strokeColor=#6c8ebf;" parent="1" vertex="1">
          <mxGeometry x="1040" y="120" width="120" height="80" as="geometry" />
        </mxCell>
        <mxCell id="oyLcNb62KB4HVOdK1oz7-73" value="ins_bouns" style="ellipse;whiteSpace=wrap;html=1;fontSize=21;strokeWidth=2;fillColor=#dae8fc;strokeColor=#6c8ebf;" parent="1" vertex="1">
          <mxGeometry x="910" y="150" width="120" height="80" as="geometry" />
        </mxCell>
        <mxCell id="oyLcNb62KB4HVOdK1oz7-78" style="edgeStyle=none;rounded=0;orthogonalLoop=1;jettySize=auto;html=1;entryX=0.5;entryY=1;entryDx=0;entryDy=0;fontSize=21;endArrow=none;endFill=0;strokeWidth=2;shape=link;startArrow=none;" parent="1" source="oyLcNb62KB4HVOdK1oz7-83" target="oyLcNb62KB4HVOdK1oz7-44" edge="1">
          <mxGeometry relative="1" as="geometry" />
        </mxCell>
        <mxCell id="oyLcNb62KB4HVOdK1oz7-76" value="contain" style="ellipse;whiteSpace=wrap;html=1;fontSize=21;strokeWidth=2;fontStyle=0;fillColor=#f8cecc;strokeColor=#b85450;" parent="1" vertex="1">
          <mxGeometry x="1090" y="480" width="140" height="80" as="geometry" />
        </mxCell>
        <mxCell id="oyLcNb62KB4HVOdK1oz7-85" style="edgeStyle=none;shape=link;rounded=0;orthogonalLoop=1;jettySize=auto;html=1;entryX=0.75;entryY=0;entryDx=0;entryDy=0;fontSize=21;endArrow=none;endFill=0;strokeWidth=2;startArrow=none;" parent="1" source="oyLcNb62KB4HVOdK1oz7-87" target="oyLcNb62KB4HVOdK1oz7-22" edge="1">
          <mxGeometry relative="1" as="geometry" />
        </mxCell>
        <mxCell id="oyLcNb62KB4HVOdK1oz7-86" style="edgeStyle=none;rounded=0;orthogonalLoop=1;jettySize=auto;html=1;entryX=1;entryY=0.5;entryDx=0;entryDy=0;fontSize=21;endArrow=none;endFill=0;strokeWidth=2;startArrow=none;" parent="1" source="oyLcNb62KB4HVOdK1oz7-88" target="oyLcNb62KB4HVOdK1oz7-44" edge="1">
          <mxGeometry relative="1" as="geometry" />
        </mxCell>
        <mxCell id="oyLcNb62KB4HVOdK1oz7-90" style="edgeStyle=none;rounded=0;orthogonalLoop=1;jettySize=auto;html=1;entryX=0;entryY=0.5;entryDx=0;entryDy=0;fontSize=21;endArrow=none;endFill=0;strokeWidth=2;" parent="1" source="oyLcNb62KB4HVOdK1oz7-84" target="oyLcNb62KB4HVOdK1oz7-89" edge="1">
          <mxGeometry relative="1" as="geometry" />
        </mxCell>
        <mxCell id="oyLcNb62KB4HVOdK1oz7-84" value="manage" style="ellipse;whiteSpace=wrap;html=1;fontSize=21;strokeWidth=2;fontStyle=0;fillColor=#f8cecc;strokeColor=#b85450;" parent="1" vertex="1">
          <mxGeometry x="1300" y="470" width="140" height="80" as="geometry" />
        </mxCell>
        <mxCell id="oyLcNb62KB4HVOdK1oz7-89" value="hiring date" style="ellipse;whiteSpace=wrap;html=1;fontSize=21;strokeWidth=2;fontStyle=0;fillColor=#ffe6cc;strokeColor=#d79b00;" parent="1" vertex="1">
          <mxGeometry x="1490" y="460" width="140" height="80" as="geometry" />
        </mxCell>
        <mxCell id="oyLcNb62KB4HVOdK1oz7-92" style="edgeStyle=none;rounded=0;orthogonalLoop=1;jettySize=auto;html=1;entryX=1;entryY=0.25;entryDx=0;entryDy=0;fontSize=21;endArrow=none;endFill=0;strokeWidth=2;shape=link;startArrow=none;" parent="1" source="oyLcNb62KB4HVOdK1oz7-99" target="oyLcNb62KB4HVOdK1oz7-27" edge="1">
          <mxGeometry relative="1" as="geometry" />
        </mxCell>
        <mxCell id="oyLcNb62KB4HVOdK1oz7-93" style="edgeStyle=none;rounded=0;orthogonalLoop=1;jettySize=auto;html=1;entryX=0;entryY=0.5;entryDx=0;entryDy=0;fontSize=21;endArrow=none;endFill=0;strokeWidth=2;shape=link;startArrow=none;" parent="1" source="oyLcNb62KB4HVOdK1oz7-101" target="oyLcNb62KB4HVOdK1oz7-44" edge="1">
          <mxGeometry relative="1" as="geometry" />
        </mxCell>
        <mxCell id="oyLcNb62KB4HVOdK1oz7-91" value="teach" style="ellipse;whiteSpace=wrap;html=1;fontSize=21;strokeWidth=2;fontStyle=0;fillColor=#f8cecc;strokeColor=#b85450;" parent="1" vertex="1">
          <mxGeometry x="810" y="520" width="140" height="80" as="geometry" />
        </mxCell>
        <mxCell id="oyLcNb62KB4HVOdK1oz7-103" style="edgeStyle=none;rounded=0;orthogonalLoop=1;jettySize=auto;html=1;entryX=0;entryY=0.25;entryDx=0;entryDy=0;fontSize=21;endArrow=none;endFill=0;strokeWidth=2;shape=link;startArrow=none;" parent="1" source="oyLcNb62KB4HVOdK1oz7-131" target="oyLcNb62KB4HVOdK1oz7-44" edge="1">
          <mxGeometry relative="1" as="geometry" />
        </mxCell>
        <mxCell id="oyLcNb62KB4HVOdK1oz7-129" style="edgeStyle=none;rounded=0;orthogonalLoop=1;jettySize=auto;html=1;exitX=0.5;exitY=0;exitDx=0;exitDy=0;entryX=0.5;entryY=1;entryDx=0;entryDy=0;fontSize=21;endArrow=none;endFill=0;strokeWidth=2;" parent="1" source="oyLcNb62KB4HVOdK1oz7-102" target="oyLcNb62KB4HVOdK1oz7-128" edge="1">
          <mxGeometry relative="1" as="geometry" />
        </mxCell>
        <mxCell id="oyLcNb62KB4HVOdK1oz7-130" style="edgeStyle=none;rounded=0;orthogonalLoop=1;jettySize=auto;html=1;entryX=1;entryY=0;entryDx=0;entryDy=0;fontSize=21;endArrow=none;endFill=0;strokeWidth=2;shape=link;startArrow=none;" parent="1" source="oyLcNb62KB4HVOdK1oz7-133" target="oyLcNb62KB4HVOdK1oz7-27" edge="1">
          <mxGeometry relative="1" as="geometry" />
        </mxCell>
        <mxCell id="oyLcNb62KB4HVOdK1oz7-102" value="has" style="ellipse;whiteSpace=wrap;html=1;fontSize=21;strokeWidth=2;fontStyle=0;fillColor=#f8cecc;strokeColor=#b85450;" parent="1" vertex="1">
          <mxGeometry x="720" y="400" width="140" height="80" as="geometry" />
        </mxCell>
        <mxCell id="oyLcNb62KB4HVOdK1oz7-101" value="M" style="text;html=1;strokeColor=none;fillColor=none;align=center;verticalAlign=middle;whiteSpace=wrap;rounded=0;dashed=1;fillStyle=auto;fontSize=21;" parent="1" vertex="1">
          <mxGeometry x="1110" y="380" width="60" height="30" as="geometry" />
        </mxCell>
        <mxCell id="oyLcNb62KB4HVOdK1oz7-109" value="" style="edgeStyle=none;rounded=0;orthogonalLoop=1;jettySize=auto;html=1;entryX=0;entryY=0.5;entryDx=0;entryDy=0;fontSize=21;endArrow=none;endFill=0;strokeWidth=2;shape=link;" parent="1" source="oyLcNb62KB4HVOdK1oz7-91" target="oyLcNb62KB4HVOdK1oz7-101" edge="1">
          <mxGeometry relative="1" as="geometry">
            <mxPoint x="923.9011382031886" y="528.8443535332212" as="sourcePoint" />
            <mxPoint x="1190" y="340" as="targetPoint" />
          </mxGeometry>
        </mxCell>
        <mxCell id="oyLcNb62KB4HVOdK1oz7-99" value="M" style="text;html=1;strokeColor=none;fillColor=none;align=center;verticalAlign=middle;whiteSpace=wrap;rounded=0;dashed=1;fillStyle=auto;fontSize=21;" parent="1" vertex="1">
          <mxGeometry x="377.5" y="790" width="60" height="30" as="geometry" />
        </mxCell>
        <mxCell id="oyLcNb62KB4HVOdK1oz7-110" value="" style="edgeStyle=none;rounded=0;orthogonalLoop=1;jettySize=auto;html=1;entryX=1;entryY=0.25;entryDx=0;entryDy=0;fontSize=21;endArrow=none;endFill=0;strokeWidth=2;shape=link;" parent="1" source="oyLcNb62KB4HVOdK1oz7-91" target="oyLcNb62KB4HVOdK1oz7-99" edge="1">
          <mxGeometry relative="1" as="geometry">
            <mxPoint x="825.926020545915" y="585.4012999570789" as="sourcePoint" />
            <mxPoint x="317.5" y="825" as="targetPoint" />
          </mxGeometry>
        </mxCell>
        <mxCell id="oyLcNb62KB4HVOdK1oz7-75" value="M" style="text;html=1;strokeColor=none;fillColor=none;align=center;verticalAlign=middle;whiteSpace=wrap;rounded=0;dashed=1;fillStyle=auto;fontSize=21;" parent="1" vertex="1">
          <mxGeometry x="257.5" y="740" width="60" height="30" as="geometry" />
        </mxCell>
        <mxCell id="oyLcNb62KB4HVOdK1oz7-111" value="" style="edgeStyle=none;rounded=0;orthogonalLoop=1;jettySize=auto;html=1;entryX=0.5;entryY=0;entryDx=0;entryDy=0;fontSize=21;endArrow=none;endFill=0;strokeWidth=2;" parent="1" source="oyLcNb62KB4HVOdK1oz7-65" target="oyLcNb62KB4HVOdK1oz7-75" edge="1">
          <mxGeometry relative="1" as="geometry">
            <mxPoint x="379.1458384079406" y="588.1836761544755" as="sourcePoint" />
            <mxPoint x="257.5" y="810" as="targetPoint" />
          </mxGeometry>
        </mxCell>
        <mxCell id="oyLcNb62KB4HVOdK1oz7-80" value="1" style="text;html=1;strokeColor=none;fillColor=none;align=center;verticalAlign=middle;whiteSpace=wrap;rounded=0;dashed=1;fillStyle=auto;fontSize=21;" parent="1" vertex="1">
          <mxGeometry x="227.5" y="750" width="60" height="30" as="geometry" />
        </mxCell>
        <mxCell id="oyLcNb62KB4HVOdK1oz7-114" value="" style="edgeStyle=none;rounded=0;orthogonalLoop=1;jettySize=auto;html=1;entryX=0.5;entryY=0;entryDx=0;entryDy=0;fontSize=21;endArrow=none;endFill=0;strokeWidth=2;shape=link;" parent="1" source="oyLcNb62KB4HVOdK1oz7-38" target="oyLcNb62KB4HVOdK1oz7-80" edge="1">
          <mxGeometry relative="1" as="geometry">
            <mxPoint x="225.52120680981443" y="589.8753825153253" as="sourcePoint" />
            <mxPoint x="257.5" y="810" as="targetPoint" />
          </mxGeometry>
        </mxCell>
        <mxCell id="oyLcNb62KB4HVOdK1oz7-81" value="1" style="text;html=1;strokeColor=none;fillColor=none;align=center;verticalAlign=middle;whiteSpace=wrap;rounded=0;dashed=1;fillStyle=auto;fontSize=21;" parent="1" vertex="1">
          <mxGeometry x="267.5" y="370" width="60" height="30" as="geometry" />
        </mxCell>
        <mxCell id="oyLcNb62KB4HVOdK1oz7-116" value="" style="edgeStyle=none;rounded=0;orthogonalLoop=1;jettySize=auto;html=1;entryX=0.5;entryY=0;entryDx=0;entryDy=0;fontSize=21;endArrow=none;endFill=0;strokeWidth=2;shape=link;" parent="1" source="oyLcNb62KB4HVOdK1oz7-3" target="oyLcNb62KB4HVOdK1oz7-81" edge="1">
          <mxGeometry relative="1" as="geometry">
            <mxPoint x="328.375" y="340" as="sourcePoint" />
            <mxPoint x="220" y="510" as="targetPoint" />
          </mxGeometry>
        </mxCell>
        <mxCell id="oyLcNb62KB4HVOdK1oz7-74" value="M" style="text;html=1;strokeColor=none;fillColor=none;align=center;verticalAlign=middle;whiteSpace=wrap;rounded=0;dashed=1;fillStyle=auto;fontSize=21;" parent="1" vertex="1">
          <mxGeometry x="340" y="380" width="60" height="30" as="geometry" />
        </mxCell>
        <mxCell id="oyLcNb62KB4HVOdK1oz7-118" value="" style="edgeStyle=none;rounded=0;orthogonalLoop=1;jettySize=auto;html=1;entryX=0.5;entryY=0;entryDx=0;entryDy=0;fontSize=21;endArrow=none;endFill=0;strokeWidth=2;shape=link;" parent="1" source="oyLcNb62KB4HVOdK1oz7-3" target="oyLcNb62KB4HVOdK1oz7-74" edge="1">
          <mxGeometry relative="1" as="geometry">
            <mxPoint x="354.625" y="340" as="sourcePoint" />
            <mxPoint x="395" y="510" as="targetPoint" />
          </mxGeometry>
        </mxCell>
        <mxCell id="oyLcNb62KB4HVOdK1oz7-82" value="1" style="text;html=1;strokeColor=none;fillColor=none;align=center;verticalAlign=middle;whiteSpace=wrap;rounded=0;dashed=1;fillStyle=auto;fontSize=21;" parent="1" vertex="1">
          <mxGeometry x="1220" y="650" width="60" height="30" as="geometry" />
        </mxCell>
        <mxCell id="oyLcNb62KB4HVOdK1oz7-123" value="" style="edgeStyle=none;rounded=0;orthogonalLoop=1;jettySize=auto;html=1;entryX=0.5;entryY=1;entryDx=0;entryDy=0;fontSize=21;endArrow=none;endFill=0;strokeWidth=2;" parent="1" source="oyLcNb62KB4HVOdK1oz7-22" target="oyLcNb62KB4HVOdK1oz7-82" edge="1">
          <mxGeometry relative="1" as="geometry">
            <mxPoint x="1289.782608695652" y="710" as="sourcePoint" />
            <mxPoint x="1155" y="510" as="targetPoint" />
          </mxGeometry>
        </mxCell>
        <mxCell id="oyLcNb62KB4HVOdK1oz7-87" value="1" style="text;html=1;strokeColor=none;fillColor=none;align=center;verticalAlign=middle;whiteSpace=wrap;rounded=0;dashed=1;fillStyle=auto;fontSize=21;" parent="1" vertex="1">
          <mxGeometry x="1320" y="650" width="60" height="30" as="geometry" />
        </mxCell>
        <mxCell id="oyLcNb62KB4HVOdK1oz7-125" value="" style="edgeStyle=none;shape=link;rounded=0;orthogonalLoop=1;jettySize=auto;html=1;entryX=0.75;entryY=0;entryDx=0;entryDy=0;fontSize=21;endArrow=none;endFill=0;strokeWidth=2;" parent="1" source="oyLcNb62KB4HVOdK1oz7-84" target="oyLcNb62KB4HVOdK1oz7-87" edge="1">
          <mxGeometry relative="1" as="geometry">
            <mxPoint x="1364.0219201058362" y="549.8538659610931" as="sourcePoint" />
            <mxPoint x="1340" y="710" as="targetPoint" />
          </mxGeometry>
        </mxCell>
        <mxCell id="oyLcNb62KB4HVOdK1oz7-83" value="M" style="text;html=1;strokeColor=none;fillColor=none;align=center;verticalAlign=middle;whiteSpace=wrap;rounded=0;dashed=1;fillStyle=auto;fontSize=21;" parent="1" vertex="1">
          <mxGeometry x="1200" y="400" width="60" height="30" as="geometry" />
        </mxCell>
        <mxCell id="oyLcNb62KB4HVOdK1oz7-126" value="" style="edgeStyle=none;rounded=0;orthogonalLoop=1;jettySize=auto;html=1;entryX=0.5;entryY=1;entryDx=0;entryDy=0;fontSize=21;endArrow=none;endFill=0;strokeWidth=2;shape=link;" parent="1" source="oyLcNb62KB4HVOdK1oz7-76" target="oyLcNb62KB4HVOdK1oz7-83" edge="1">
          <mxGeometry relative="1" as="geometry">
            <mxPoint x="1182.7027027026925" y="482.1621621621798" as="sourcePoint" />
            <mxPoint x="1250" y="370" as="targetPoint" />
          </mxGeometry>
        </mxCell>
        <mxCell id="oyLcNb62KB4HVOdK1oz7-88" value="1" style="text;html=1;strokeColor=none;fillColor=none;align=center;verticalAlign=middle;whiteSpace=wrap;rounded=0;dashed=1;fillStyle=auto;fontSize=21;" parent="1" vertex="1">
          <mxGeometry x="1300" y="380" width="60" height="30" as="geometry" />
        </mxCell>
        <mxCell id="oyLcNb62KB4HVOdK1oz7-127" value="" style="edgeStyle=none;rounded=0;orthogonalLoop=1;jettySize=auto;html=1;entryX=0.5;entryY=1;entryDx=0;entryDy=0;fontSize=21;endArrow=none;endFill=0;strokeWidth=2;" parent="1" source="oyLcNb62KB4HVOdK1oz7-84" target="oyLcNb62KB4HVOdK1oz7-88" edge="1">
          <mxGeometry relative="1" as="geometry">
            <mxPoint x="1356.160999023682" y="470.78949723376536" as="sourcePoint" />
            <mxPoint x="1310" y="340" as="targetPoint" />
          </mxGeometry>
        </mxCell>
        <mxCell id="oyLcNb62KB4HVOdK1oz7-128" value="evaluation" style="ellipse;whiteSpace=wrap;html=1;fontSize=21;strokeWidth=2;fontStyle=0;fillColor=#ffe6cc;strokeColor=#d79b00;" parent="1" vertex="1">
          <mxGeometry x="630" y="260" width="140" height="80" as="geometry" />
        </mxCell>
        <mxCell id="oyLcNb62KB4HVOdK1oz7-131" value="1" style="text;html=1;strokeColor=none;fillColor=none;align=center;verticalAlign=middle;whiteSpace=wrap;rounded=0;dashed=1;fillStyle=auto;fontSize=21;" parent="1" vertex="1">
          <mxGeometry x="1030" y="340" width="60" height="30" as="geometry" />
        </mxCell>
        <mxCell id="oyLcNb62KB4HVOdK1oz7-132" value="" style="edgeStyle=none;rounded=0;orthogonalLoop=1;jettySize=auto;html=1;entryX=0;entryY=0.25;entryDx=0;entryDy=0;fontSize=21;endArrow=none;endFill=0;strokeWidth=2;shape=link;" parent="1" source="oyLcNb62KB4HVOdK1oz7-102" target="oyLcNb62KB4HVOdK1oz7-131" edge="1">
          <mxGeometry relative="1" as="geometry">
            <mxPoint x="852.6411926300366" y="422.14726010043955" as="sourcePoint" />
            <mxPoint x="1190" y="325" as="targetPoint" />
          </mxGeometry>
        </mxCell>
        <mxCell id="oyLcNb62KB4HVOdK1oz7-133" value="1" style="text;html=1;strokeColor=none;fillColor=none;align=center;verticalAlign=middle;whiteSpace=wrap;rounded=0;dashed=1;fillStyle=auto;fontSize=21;" parent="1" vertex="1">
          <mxGeometry x="437.5" y="680" width="60" height="30" as="geometry" />
        </mxCell>
        <mxCell id="oyLcNb62KB4HVOdK1oz7-134" value="" style="edgeStyle=none;rounded=0;orthogonalLoop=1;jettySize=auto;html=1;entryX=1;entryY=0;entryDx=0;entryDy=0;fontSize=21;endArrow=none;endFill=0;strokeWidth=2;shape=link;" parent="1" source="oyLcNb62KB4HVOdK1oz7-102" target="oyLcNb62KB4HVOdK1oz7-133" edge="1">
          <mxGeometry relative="1" as="geometry">
            <mxPoint x="748.7656729644154" y="472.3235190745045" as="sourcePoint" />
            <mxPoint x="317.5" y="810" as="targetPoint" />
          </mxGeometry>
        </mxCell>
        <mxCell id="oyLcNb62KB4HVOdK1oz7-136" style="edgeStyle=none;shape=link;rounded=0;orthogonalLoop=1;jettySize=auto;html=1;entryX=1;entryY=0.75;entryDx=0;entryDy=0;fontSize=21;endArrow=none;endFill=0;strokeWidth=2;startArrow=none;" parent="1" source="oyLcNb62KB4HVOdK1oz7-141" target="oyLcNb62KB4HVOdK1oz7-27" edge="1">
          <mxGeometry relative="1" as="geometry" />
        </mxCell>
        <mxCell id="oyLcNb62KB4HVOdK1oz7-137" style="edgeStyle=none;shape=link;rounded=0;orthogonalLoop=1;jettySize=auto;html=1;entryX=0;entryY=0.5;entryDx=0;entryDy=0;fontSize=21;endArrow=none;endFill=0;strokeWidth=2;startArrow=none;" parent="1" source="oyLcNb62KB4HVOdK1oz7-138" target="oyLcNb62KB4HVOdK1oz7-59" edge="1">
          <mxGeometry relative="1" as="geometry" />
        </mxCell>
        <mxCell id="oyLcNb62KB4HVOdK1oz7-135" value="classified" style="ellipse;whiteSpace=wrap;html=1;fontSize=21;strokeWidth=2;fontStyle=0;fillColor=#f8cecc;strokeColor=#b85450;" parent="1" vertex="1">
          <mxGeometry x="572.5" y="860" width="140" height="80" as="geometry" />
        </mxCell>
        <mxCell id="oyLcNb62KB4HVOdK1oz7-138" value="M" style="text;html=1;strokeColor=none;fillColor=none;align=center;verticalAlign=middle;whiteSpace=wrap;rounded=0;dashed=1;fillStyle=auto;fontSize=21;" parent="1" vertex="1">
          <mxGeometry x="840" y="885" width="60" height="30" as="geometry" />
        </mxCell>
        <mxCell id="oyLcNb62KB4HVOdK1oz7-139" value="" style="edgeStyle=none;shape=link;rounded=0;orthogonalLoop=1;jettySize=auto;html=1;entryX=0;entryY=0.5;entryDx=0;entryDy=0;fontSize=21;endArrow=none;endFill=0;strokeWidth=2;" parent="1" source="oyLcNb62KB4HVOdK1oz7-135" target="oyLcNb62KB4HVOdK1oz7-138" edge="1">
          <mxGeometry relative="1" as="geometry">
            <mxPoint x="712.3746251458119" y="902.3929666145827" as="sourcePoint" />
            <mxPoint x="935" y="910" as="targetPoint" />
          </mxGeometry>
        </mxCell>
        <mxCell id="oyLcNb62KB4HVOdK1oz7-141" value="1" style="text;html=1;strokeColor=none;fillColor=none;align=center;verticalAlign=middle;whiteSpace=wrap;rounded=0;dashed=1;fillStyle=auto;fontSize=21;" parent="1" vertex="1">
          <mxGeometry x="377.5" y="850" width="60" height="30" as="geometry" />
        </mxCell>
        <mxCell id="oyLcNb62KB4HVOdK1oz7-142" value="" style="edgeStyle=none;shape=link;rounded=0;orthogonalLoop=1;jettySize=auto;html=1;entryX=1;entryY=0.75;entryDx=0;entryDy=0;fontSize=21;endArrow=none;endFill=0;strokeWidth=2;" parent="1" source="oyLcNb62KB4HVOdK1oz7-135" target="oyLcNb62KB4HVOdK1oz7-141" edge="1">
          <mxGeometry relative="1" as="geometry">
            <mxPoint x="574.3968049663195" y="890.7514179583891" as="sourcePoint" />
            <mxPoint x="317.5" y="855" as="targetPoint" />
          </mxGeometry>
        </mxCell>
      </root>
    </mxGraphModel>
  </diagram>
</mxfile>